<svg width="112" height="24" viewBox="0 0 112 24" fill="none" xmlns="http://www.w3.org/2000/svg">
<circle cx="12" cy="12" r="10.25" stroke="#155EEF" stroke-width="3.5"/>
<path d="M31.0114 18V6.36364H33.4716V15.9716H38.4602V18H31.0114ZM43.9872 18.1705C43.1046 18.1705 42.3414 17.983 41.6974 17.608C41.0573 17.2292 40.563 16.7027 40.2145 16.0284C39.866 15.3504 39.6918 14.5644 39.6918 13.6705C39.6918 12.7689 39.866 11.9811 40.2145 11.3068C40.563 10.6288 41.0573 10.1023 41.6974 9.72727C42.3414 9.34848 43.1046 9.15909 43.9872 9.15909C44.8698 9.15909 45.6312 9.34848 46.2713 9.72727C46.9152 10.1023 47.4115 10.6288 47.7599 11.3068C48.1084 11.9811 48.2827 12.7689 48.2827 13.6705C48.2827 14.5644 48.1084 15.3504 47.7599 16.0284C47.4115 16.7027 46.9152 17.2292 46.2713 17.608C45.6312 17.983 44.8698 18.1705 43.9872 18.1705ZM43.9986 16.2955C44.4001 16.2955 44.7353 16.1818 45.0043 15.9545C45.2732 15.7235 45.4759 15.4091 45.6122 15.0114C45.7524 14.6136 45.8224 14.161 45.8224 13.6534C45.8224 13.1458 45.7524 12.6932 45.6122 12.2955C45.4759 11.8977 45.2732 11.5833 45.0043 11.3523C44.7353 11.1212 44.4001 11.0057 43.9986 11.0057C43.5933 11.0057 43.2524 11.1212 42.9759 11.3523C42.7031 11.5833 42.4967 11.8977 42.3565 12.2955C42.2202 12.6932 42.152 13.1458 42.152 13.6534C42.152 14.161 42.2202 14.6136 42.3565 15.0114C42.4967 15.4091 42.7031 15.7235 42.9759 15.9545C43.2524 16.1818 43.5933 16.2955 43.9986 16.2955ZM53.7997 18.1705C52.9058 18.1705 52.1368 17.9811 51.4929 17.6023C50.8527 17.2197 50.3603 16.6894 50.0156 16.0114C49.6747 15.3333 49.5043 14.553 49.5043 13.6705C49.5043 12.7765 49.6766 11.9924 50.0213 11.3182C50.3698 10.6402 50.8641 10.1117 51.5043 9.73295C52.1444 9.35038 52.9058 9.15909 53.7884 9.15909C54.5497 9.15909 55.2164 9.29735 55.7884 9.57386C56.3603 9.85038 56.813 10.2386 57.1463 10.7386C57.4796 11.2386 57.6634 11.8258 57.6974 12.5H55.4134C55.349 12.0644 55.1785 11.714 54.902 11.4489C54.6293 11.1799 54.2713 11.0455 53.8281 11.0455C53.4531 11.0455 53.1255 11.1477 52.8452 11.3523C52.5687 11.553 52.3527 11.8466 52.1974 12.233C52.0421 12.6193 51.9645 13.0871 51.9645 13.6364C51.9645 14.1932 52.0402 14.6667 52.1918 15.0568C52.3471 15.447 52.5649 15.7443 52.8452 15.9489C53.1255 16.1534 53.4531 16.2557 53.8281 16.2557C54.1046 16.2557 54.3527 16.1989 54.5724 16.0852C54.7959 15.9716 54.9796 15.8068 55.1236 15.5909C55.2713 15.3712 55.3679 15.108 55.4134 14.8011H57.6974C57.6596 15.4678 57.4777 16.0549 57.152 16.5625C56.83 17.0663 56.3849 17.4602 55.8168 17.7443C55.2486 18.0284 54.5762 18.1705 53.7997 18.1705ZM61.7358 18.1648C61.179 18.1648 60.6828 18.0682 60.2472 17.875C59.8116 17.678 59.4669 17.3883 59.2131 17.0057C58.9631 16.6193 58.8381 16.1383 58.8381 15.5625C58.8381 15.0777 58.9271 14.6705 59.1051 14.3409C59.2831 14.0114 59.5256 13.7462 59.8324 13.5455C60.1392 13.3447 60.4877 13.1932 60.8778 13.0909C61.2718 12.9886 61.6847 12.9167 62.1165 12.875C62.6241 12.822 63.0331 12.7727 63.3438 12.7273C63.6544 12.678 63.8797 12.6061 64.0199 12.5114C64.16 12.4167 64.2301 12.2765 64.2301 12.0909V12.0568C64.2301 11.697 64.1165 11.4186 63.8892 11.2216C63.6657 11.0246 63.3475 10.9261 62.9347 10.9261C62.4991 10.9261 62.1525 11.0227 61.8949 11.2159C61.6373 11.4053 61.4669 11.6439 61.3835 11.9318L59.1449 11.75C59.2585 11.2197 59.482 10.7614 59.8153 10.375C60.1487 9.98485 60.5786 9.68561 61.1051 9.47727C61.6354 9.26515 62.2491 9.15909 62.946 9.15909C63.4309 9.15909 63.8949 9.21591 64.3381 9.32955C64.785 9.44318 65.1809 9.61932 65.5256 9.85795C65.8741 10.0966 66.1487 10.4034 66.3494 10.7784C66.5502 11.1496 66.6506 11.5947 66.6506 12.1136V18H64.3551V16.7898H64.2869C64.1468 17.0625 63.9593 17.303 63.7244 17.5114C63.4896 17.7159 63.2074 17.8769 62.8778 17.9943C62.5483 18.108 62.1676 18.1648 61.7358 18.1648ZM62.429 16.4943C62.785 16.4943 63.0994 16.4242 63.3722 16.2841C63.6449 16.1402 63.8589 15.947 64.0142 15.7045C64.1695 15.4621 64.2472 15.1875 64.2472 14.8807V13.9545C64.1714 14.0038 64.0672 14.0492 63.9347 14.0909C63.8059 14.1288 63.66 14.1648 63.4972 14.1989C63.3343 14.2292 63.1714 14.2576 63.0085 14.2841C62.8456 14.3068 62.6979 14.3277 62.5653 14.3466C62.2813 14.3883 62.0331 14.4545 61.821 14.5455C61.6089 14.6364 61.4441 14.7595 61.3267 14.9148C61.2093 15.0663 61.1506 15.2557 61.1506 15.483C61.1506 15.8125 61.2699 16.0644 61.5085 16.2386C61.7509 16.4091 62.0578 16.4943 62.429 16.4943ZM70.9489 6.36364V18H68.5284V6.36364H70.9489ZM72.8878 18V9.27273H75.3082V18H72.8878ZM74.1037 8.14773C73.7438 8.14773 73.4351 8.02841 73.1776 7.78977C72.9238 7.54735 72.7969 7.25758 72.7969 6.92045C72.7969 6.58712 72.9238 6.30114 73.1776 6.0625C73.4351 5.82008 73.7438 5.69886 74.1037 5.69886C74.4635 5.69886 74.7704 5.82008 75.0241 6.0625C75.2817 6.30114 75.4105 6.58712 75.4105 6.92045C75.4105 7.25758 75.2817 7.54735 75.0241 7.78977C74.7704 8.02841 74.4635 8.14773 74.1037 8.14773ZM77.2017 18V16.5568L81.4744 11.267V11.2045H77.3494V9.27273H84.3892V10.8466L80.3778 16.0057V16.0682H84.5369V18H77.2017ZM88.8764 18.1648C88.3196 18.1648 87.8234 18.0682 87.3878 17.875C86.9522 17.678 86.6075 17.3883 86.3537 17.0057C86.1037 16.6193 85.9787 16.1383 85.9787 15.5625C85.9787 15.0777 86.0677 14.6705 86.2457 14.3409C86.4238 14.0114 86.6662 13.7462 86.973 13.5455C87.2798 13.3447 87.6283 13.1932 88.0185 13.0909C88.4124 12.9886 88.8253 12.9167 89.2571 12.875C89.7647 12.822 90.1738 12.7727 90.4844 12.7273C90.795 12.678 91.0204 12.6061 91.1605 12.5114C91.3007 12.4167 91.3707 12.2765 91.3707 12.0909V12.0568C91.3707 11.697 91.2571 11.4186 91.0298 11.2216C90.8063 11.0246 90.4882 10.9261 90.0753 10.9261C89.6397 10.9261 89.2931 11.0227 89.0355 11.2159C88.7779 11.4053 88.6075 11.6439 88.5241 11.9318L86.2855 11.75C86.3991 11.2197 86.6226 10.7614 86.956 10.375C87.2893 9.98485 87.7192 9.68561 88.2457 9.47727C88.776 9.26515 89.3897 9.15909 90.0866 9.15909C90.5715 9.15909 91.0355 9.21591 91.4787 9.32955C91.9257 9.44318 92.3215 9.61932 92.6662 9.85795C93.0147 10.0966 93.2893 10.4034 93.4901 10.7784C93.6908 11.1496 93.7912 11.5947 93.7912 12.1136V18H91.4957V16.7898H91.4276C91.2874 17.0625 91.0999 17.303 90.8651 17.5114C90.6302 17.7159 90.348 17.8769 90.0185 17.9943C89.6889 18.108 89.3082 18.1648 88.8764 18.1648ZM89.5696 16.4943C89.9257 16.4943 90.2401 16.4242 90.5128 16.2841C90.7855 16.1402 90.9995 15.947 91.1548 15.7045C91.3101 15.4621 91.3878 15.1875 91.3878 14.8807V13.9545C91.312 14.0038 91.2079 14.0492 91.0753 14.0909C90.9465 14.1288 90.8007 14.1648 90.6378 14.1989C90.4749 14.2292 90.312 14.2576 90.1491 14.2841C89.9863 14.3068 89.8385 14.3277 89.706 14.3466C89.4219 14.3883 89.1738 14.4545 88.9616 14.5455C88.7495 14.6364 88.5848 14.7595 88.4673 14.9148C88.3499 15.0663 88.2912 15.2557 88.2912 15.483C88.2912 15.8125 88.4105 16.0644 88.6491 16.2386C88.8916 16.4091 89.1984 16.4943 89.5696 16.4943ZM95.669 18V9.27273H98.0156V10.7955H98.1065C98.2656 10.2538 98.5327 9.8447 98.9077 9.56818C99.2827 9.28788 99.7145 9.14773 100.203 9.14773C100.324 9.14773 100.455 9.1553 100.595 9.17045C100.735 9.18561 100.858 9.20644 100.964 9.23295V11.3807C100.851 11.3466 100.694 11.3163 100.493 11.2898C100.292 11.2633 100.108 11.25 99.9418 11.25C99.5857 11.25 99.2675 11.3277 98.9872 11.483C98.7107 11.6345 98.491 11.8466 98.3281 12.1193C98.169 12.392 98.0895 12.7064 98.0895 13.0625V18H95.669ZM105.026 18.142C104.363 18.142 103.762 17.9716 103.224 17.6307C102.69 17.286 102.266 16.7803 101.952 16.1136C101.641 15.4432 101.486 14.6212 101.486 13.6477C101.486 12.6477 101.647 11.8163 101.969 11.1534C102.291 10.4867 102.719 9.98864 103.253 9.65909C103.791 9.32576 104.38 9.15909 105.02 9.15909C105.509 9.15909 105.916 9.24242 106.241 9.40909C106.571 9.57197 106.836 9.77652 107.037 10.0227C107.241 10.2652 107.397 10.5038 107.503 10.7386H107.577V6.36364H109.991V18H107.605V16.6023H107.503C107.389 16.8447 107.228 17.0852 107.02 17.3239C106.815 17.5587 106.548 17.7538 106.219 17.9091C105.893 18.0644 105.495 18.142 105.026 18.142ZM105.793 16.2159C106.183 16.2159 106.512 16.1098 106.781 15.8977C107.054 15.6818 107.262 15.3807 107.406 14.9943C107.554 14.608 107.628 14.1553 107.628 13.6364C107.628 13.1174 107.556 12.6667 107.412 12.2841C107.268 11.9015 107.06 11.6061 106.787 11.3977C106.514 11.1894 106.183 11.0852 105.793 11.0852C105.395 11.0852 105.06 11.1932 104.787 11.4091C104.514 11.625 104.308 11.9242 104.168 12.3068C104.027 12.6894 103.957 13.1326 103.957 13.6364C103.957 14.1439 104.027 14.5928 104.168 14.983C104.312 15.3693 104.518 15.6723 104.787 15.892C105.06 16.108 105.395 16.2159 105.793 16.2159Z" fill="#1D1D1F"/>
</svg>
